<svg fill="none" height="16" viewBox="0 0 17 16" width="17" xmlns="http://www.w3.org/2000/svg" xmlns:xlink="http://www.w3.org/1999/xlink"><clipPath id="a"><path d="m.234497.000854h16v16h-16z"/></clipPath><g clip-path="url(#a)"><path d="m8.2345 16.0009c4.4183 0 8-3.5818 8-8.00005 0-4.41827-3.5817-7.99999551-8-7.99999551-4.41828 0-8.000003 3.58172551-8.000003 7.99999551 0 4.41825 3.581723 8.00005 8.000003 8.00005z" fill="#172852"/><path d="m6.67848 3.57605c.9368-.3504 1.9912-.3512 2.9456-.0632 1.24242.3856 2.29122 1.3232 2.83922 2.5.1512.3352.296.6848.3104 1.0576-.6984-.4048-1.464-.6672-2.2312-.9064-1.22722-.4424-2.51202-.7496-3.67362-1.3576-.2704-.1616-.6152-.3272-.6888-.664-.0296-.2912.2784-.4536.4984-.5664z" fill="#ffd83d"/><path d="m3.85049 6.40802c.2712-.736.716-1.4192 1.32-1.9256.1536 1.2632.6912 2.484 1.5792 3.4024 1.0648 1.1064 2.5816 1.7856 4.12481 1.76.6128.0192 1.212-.1224 1.8096-.2368-.588 2.12478-2.91681 3.53518-5.07441 3.19598-1.3024-.1664-2.5048-.9376-3.2304-2.0264-.8184-1.20318-1.0248-2.80078-.5288-4.16958z" fill="#ffd83d"/><path d="m10.5425 6.16406c.7672.2392 1.5328.5016 2.2312.9064l.0472.0248c.0648.4872.112.984.0256 1.472-.3512-.1488-.636-.4104-.9336-.6416-.5728-.4768-1.1576-1.0224-1.3704-1.7616z" fill="#ff6f03"/></g></svg>