<svg fill="none" height="16" viewBox="0 0 16 16" width="16" xmlns="http://www.w3.org/2000/svg" xmlns:xlink="http://www.w3.org/1999/xlink"><clipPath id="a"><path d="m0 .000854h16v16h-16z"/></clipPath><g clip-path="url(#a)"><path clip-rule="evenodd" d="m8 .00085449c4.4186 0 8 3.58140551 8 7.99999551 0 4.41855-3.5814 8.00005-8 8.00005-4.41859 0-8-3.5815-8-8.00005 0-4.41859 3.58141-7.99999551 8-7.99999551z" fill="#f0b90b" fill-rule="evenodd"/><g fill="#fff"><path d="m4.39677 8.00082.00577 2.11538 1.79744 1.0577v1.2385l-2.84936-1.6712v-3.35897zm0-2.11539v1.2327l-1.04679-.61923v-1.2327l1.04679-.61923 1.05192.61923zm2.55385-.61923 1.04679-.61923 1.05192.61923-1.05192.61923z"/><path d="m5.1532 9.67774v-1.23846l1.04679.61923v1.23269zm1.79743 1.93976 1.0468.6192 1.05192-.6192v1.2327l-1.05192.6192-1.0468-.6192zm3.59997-6.3513 1.0468-.61923 1.052.61923v1.2327l-1.052.61923v-1.2327zm1.0468 4.85.0058-2.11538 1.0468-.61923v3.35901l-2.84937 1.6711v-1.2384z"/><path d="m10.8468 9.67779-1.04681.61351v-1.23274l1.04681-.61923z"/><path d="m10.8468 6.32389.0058 1.23846-1.80261 1.0577v2.12055l-1.04679.6134-1.0468-.6134v-2.12055l-1.80256-1.0577v-1.23846l1.05128-.61923 1.79167 1.06282 1.80256-1.06282 1.05195.61923zm-5.6936-2.11474 2.84423-1.67692 2.84937 1.67692-1.04681.61923-1.80256-1.06282-1.79744 1.06282z"/></g></g></svg>