<svg fill="none" height="16" viewBox="0 0 17 16" width="17" xmlns="http://www.w3.org/2000/svg" xmlns:xlink="http://www.w3.org/1999/xlink"><clipPath id="a"><path d="m.234497.000854h16v16h-16z"/></clipPath><g clip-path="url(#a)"><path d="m15.622 4.82082c-.75-.6925-1.7875-1.75-2.6325-2.5l-.05-.035c-.0832-.0668-.177-.11919-.2775-.155-2.0375-.38-11.51999-2.1524973-11.704991-2.12999733-.051838.00726001-.101387.02605463-.145.05500003l-.0475.0375c-.058489.0594003-.102912.1311613-.13.2100003l-.0125.0325v.1775.0275c1.067501 2.972497 5.282501 12.709977 6.112501 14.994977.05.155.145.45.3225.465h.04c.095 0 .5-.535.5-.535s7.23999-8.77998 7.97249-9.71498c.0948-.11517.1785-.23906.25-.37.0183-.10245.0097-.20788-.025-.30602-.0346-.09814-.094-.18564-.1725-.25398zm-6.16749 1.0225 3.08999-2.5625 1.8125 1.67zm-1.2-.1675-5.32-4.36 8.60749 1.5875zm.48 1.1425 5.44499-.8775-6.22499 7.49998zm-6.5225-5.0675 5.5975 4.75-.81 6.94498z" fill="#ff060a"/></g></svg>