<svg fill="none" height="17" viewBox="0 0 16 17" width="16" xmlns="http://www.w3.org/2000/svg" xmlns:xlink="http://www.w3.org/1999/xlink"><clipPath id="a"><path d="m0 0h16v16.0017h-16z"/></clipPath><g clip-path="url(#a)"><path d="m15.9998 8.00006c0 4.41814-3.5813 8.00004-7.99981 8.00004-4.41847 0-7.99980689-3.5819-7.99980689-8.00004 0-4.41816 3.58142689-8.00006 7.99980689-8.00006 4.41841 0 7.99981 3.58155 7.99981 8.00006z" fill="#fff"/><path d="m8 0c-4.41689 0-8.00457867 3.58696-7.9989558 7.99981.00110753.88287.1418918 1.73214.4061248 2.52659h2.393471v-6.7299l5.19936 5.19932 5.1991-5.19932v6.73h2.394c.2646-.79438.4047-1.64365.4062-2.52656.0076-4.41745-3.5819-7.99887506-7.9993-7.99887506z" fill="#f26822"/><path d="m6.80425 10.1912-2.26904-2.2692v4.2348h-1.73478l-1.63698.0003c1.40414 2.3037 3.94176 3.8447 6.83652 3.8447 2.89473 0 5.43253-1.5414 6.83693-3.8451h-3.3727v-4.2347l-2.26916 2.2692-1.19533 1.1953-1.19537-1.1953z" fill="#4d4d4d"/></g></svg>