<svg fill="none" height="16" viewBox="0 0 16 16" width="16" xmlns="http://www.w3.org/2000/svg" xmlns:xlink="http://www.w3.org/1999/xlink"><clipPath id="a"><path d="m0 .000854h16v16h-16z"/></clipPath><g clip-path="url(#a)"><path d="m7.99998 15.135c3.94012 0 7.13412-3.1941 7.13412-7.13416 0-3.94008-3.194-7.134141-7.13412-7.134141-3.94007 0-7.134135 3.194061-7.134135 7.134141 0 3.94006 3.194065 7.13416 7.134135 7.13416z" fill="#fff"/><path d="m8 .00085449c-1.58225 0-3.12897.46919151-4.44456 1.34824551-1.31559.87905-2.34097 2.12848-2.946473 3.59029-.60550075 1.46181-.763927 3.07034-.455246 4.62219.308682 1.55182 1.070609 2.97732 2.189429 4.09612s2.54428 1.8808 4.09613 2.1894c1.55185.3087 3.16038.1503 4.62222-.4552 1.4618-.6055 2.7112-1.6309 3.5903-2.9465.879-1.3156 1.3482-2.8623 1.3482-4.44455.0031-1.04752-.2002-2.08539-.5983-3.05434-.398-.96896-.983-1.85002-1.7216-2.59289-.7385-.74287-1.6162-1.333-2.5828-1.736685-.9666-.403688-2.00328-.61303243-3.05081-.61608051zm.1356 8.27118551-.83293 2.80876h4.45523c.0295-.0011.0589.0037.0866.0141.0276.0103.053.026.0746.0461.0216.0202.039.0444.0512.0713s.019.0559.02.0854v.0736l-.3874 1.3366c-.0171.0632-.0551.1187-.1079.1574s-.1172.0584-.1826.0557h-6.81845l1.14286-3.89351-1.27845.38741.29055-.89104 1.27845-.38741 1.60775-5.46247c.0177-.06285.05592-.11798.10858-.15659.05265-.03861.11671-.0585.18198-.05649h1.72397c.02951-.00103.05894.00376.0866.01411.02766.01034.053.02604.07459.04619.02159.02014.03899.04435.05122.07123s.01904.05591.02004.08542v.07361l-1.35594 4.61017 1.27845-.38741-.27118.92978z" fill="#345d9d"/></g></svg>