<svg width="17" height="16" viewBox="0 0 17 16" fill="none" xmlns="http://www.w3.org/2000/svg">
<g clip-path="url(#clip0_301_2)">
<path d="M13.0558 0.818632L9.71729 5.77863C9.48644 6.11641 9.93039 6.5253 10.25 6.24085L13.5353 3.37863C13.6241 3.30752 13.7484 3.36085 13.7484 3.4853V12.4275C13.7484 12.552 13.5885 12.6053 13.5175 12.5164L3.57301 0.605299C3.25337 0.214188 2.79166 0.000854492 2.27667 0.000854492H1.92151C0.998093 0.000854492 0.234497 0.765299 0.234497 1.70752V14.2942C0.234497 15.2364 0.998093 16.0009 1.93927 16.0009C2.52529 16.0009 3.07578 15.6986 3.39543 15.1831L6.73394 10.2231C6.9648 9.8853 6.52085 9.47641 6.2012 9.76085L2.91596 12.6053C2.82717 12.6764 2.70287 12.6231 2.70287 12.4986V3.57419C2.70287 3.44974 2.86269 3.39641 2.93372 3.4853L12.8782 15.3964C13.1979 15.7875 13.6773 16.0009 14.1746 16.0009H14.5297C15.4709 16.0009 16.2345 15.2364 16.2345 14.2942V1.70752C16.2345 0.765299 15.4709 0.000854492 14.5297 0.000854492C13.926 0.000854492 13.3755 0.303077 13.0558 0.818632Z" fill="black"/>
</g>
<defs>
<clipPath id="clip0_301_2">
<rect width="16" height="16" fill="white" transform="translate(0.234497 0.000854492)"/>
</clipPath>
</defs>
</svg>
