<svg fill="none" height="16" viewBox="0 0 16 16" width="16" xmlns="http://www.w3.org/2000/svg" xmlns:xlink="http://www.w3.org/1999/xlink"><clipPath id="a"><path d="m0 .000854h16v16h-16z"/></clipPath><g clip-path="url(#a)"><path d="m15.7598 9.93609c-1.0685 4.28571-5.4093 6.89401-9.69553 5.82521-4.28447-1.0684-6.892693-5.4095-5.823766-9.69487 1.067986-4.28622 5.408766-6.894646 9.693696-5.826188 4.286 1.068458 6.894 5.409978 5.8255 9.695928v-.00008z" fill="#f7931a"/><path d="m11.5277 6.86108c.1592-1.06463-.6513-1.6369-1.75966-2.01867l.35956-1.44213-.87788-.21874-.35001 1.40416c-.23079-.05756-.46779-.1118-.70335-.16557l.35256-1.41342-.87733-.21875-.35975 1.44166c-.19098-.04348-.37855-.08645-.56054-.13174l.00102-.00453-1.2106-.30231-.23353.93762s.65131.14929.63758.15848c.35549.08873.41978.32405.4091.51058l-.40957 1.64292c.02448.00622.05623.01521.09127.02929-.02929-.00728-.06045-.01521-.09279-.02296l-.57408 2.3015c-.04344.10801-.15371.27009-.40225.20854.0088.01275-.63805-.15923-.63805-.15923l-.43585 1.00492 1.14241.2847c.21252.0533.42079.1091.62588.1615l-.36327 1.4587.87686.2188.35975-1.4432c.23954.065.47201.125.69959.1815l-.35854 1.4364.87791.2188.36323-1.456c1.49695.2833 2.62253.1691 3.09633-1.1849.3818-1.09011-.019-1.71889-.8066-2.12892.5736-.13229 1.0057-.50956 1.1209-1.28889l-.0003-.00019zm-2.00574 2.81254c-.2713 1.09008-2.10673.50088-2.7018.35308l.48207-1.9325c.59503.14855 2.50327.44253 2.21977 1.57942zm.2715-2.82834c-.24749.99158-1.77514.48781-2.27069.36429l.43705-1.75265c.49556.12353 2.09148.35408 1.83371 1.38836z" fill="#fff"/></g></svg>